# xmcd
#
# Track frame offsets: 
#        150
#        15515
#        17960
#        37203
#        54104
#        58527
#        82799
#        107357
#        130769
#        151278
#        174204
#        189920
#        217138
#        225715
#
# Disc length: 3344 seconds
#
# Revision: 0
# Processed by: cddbd v1.5.2PL0 Copyright (c) Steve Scherf et al.
# Submitted via: ExactAudioCopy v1.0b1
#
DISCID=a40d0e0e
DTITLE=Philip Bölter - New Hour
DYEAR=2009
DGENRE=Blues
TTITLE0=Big City
TTITLE1=Interlude 1
TTITLE2=Station
TTITLE3=Smile
TTITLE4=Interlude 2 
TTITLE5=Sail Away
TTITLE6=The Sea
TTITLE7=Real Dream
TTITLE8=Trouble
TTITLE9=Contract of Eternity
TTITLE10=In the Evening
TTITLE11=Through the Night
TTITLE12=Melody
TTITLE13=New Hour
EXTD=
EXTT0=
EXTT1=
EXTT2=
EXTT3=
EXTT4=
EXTT5=
EXTT6=
EXTT7=
EXTT8=
EXTT9=
EXTT10=
EXTT11=
EXTT12=
EXTT13=
PLAYORDER=
